<svg xmlns="http://www.w3.org/2000/svg" viewBox="0 0 1577.404 253.500">
<rect width="1577.40" height="253.50" fill="none"/>
<g transform="translate(-44.735,-52.191) scale(7.45588)" fill="#0A1628">
<rect x="6" y="7" width="30" height="14" rx="4"/>
<rect x="12" y="27" width="30" height="14" rx="4"/>
</g>
<g transform="translate(384.724,26.177)">
<g transform="translate(-154.000000,405.971089) scale(0.100000,-0.100000)" fill="#0A1628" stroke="none">
<path d="M2015 4054 c-237 -28 -339 -84 -409 -223 -51 -101 -61 -162 -60 -366
1 -201 11 -261 55 -349 52 -103 109 -149 239 -192 49 -16 110 -18 540 -24 267
-3 493 -9 502 -14 10 -4 28 -24 40 -44 21 -34 23 -47 22 -187 -1 -165 -6 -185
-57 -215 -31 -19 -56 -20 -669 -20 -625 0 -638 0 -658 -20 -18 -18 -20 -33
-20 -163 0 -108 4 -148 14 -163 14 -18 33 -19 703 -19 640 0 692 1 748 18 84
26 131 52 185 103 105 98 133 199 134 489 1 214 -9 287 -50 382 -27 61 -102
139 -160 164 -73 33 -170 39 -629 39 -408 0 -453 2 -485 18 -56 28 -71 70 -73
214 -2 108 1 127 18 158 42 72 19 70 700 70 462 0 614 3 623 12 8 8 12 58 12
159 0 121 -3 150 -16 163 -14 14 -82 16 -617 15 -331 -1 -615 -4 -632 -5z"/>
<path d="M7858 4049 c-16 -9 -18 -28 -18 -162 0 -106 4 -157 12 -165 17 -17
319 -17 336 0 8 8 12 58 12 159 0 121 -3 150 -16 163 -13 13 -42 16 -162 16
-81 0 -155 -5 -164 -11z"/>
<path d="M3703 3903 c-10 -3 -13 -50 -13 -184 l0 -179 -128 0 c-86 0 -132 -4
-140 -12 -17 -17 -17 -269 0 -286 8 -8 54 -12 139 -12 l128 0 3 -437 c3 -422
4 -440 26 -505 25 -75 91 -157 151 -188 67 -34 180 -50 350 -50 88 0 171 4
185 10 l26 10 0 133 c0 90 -4 137 -12 145 -8 8 -54 12 -140 12 -230 0 -222
-18 -226 488 l-3 382 175 0 c96 0 181 3 190 6 14 5 16 28 16 145 0 126 -2 139
-19 149 -12 6 -92 10 -190 10 l-171 0 0 173 c0 121 -4 177 -12 185 -12 12
-307 17 -335 5z"/>
<path d="M4945 3533 c-165 -23 -282 -110 -334 -249 -38 -100 -46 -187 -46
-494 0 -238 4 -312 17 -385 37 -189 124 -285 300 -332 54 -14 137 -17 559 -20
273 -3 511 0 530 4 l34 9 3 143 c2 95 -1 148 -9 157 -9 11 -103 14 -492 16
-463 3 -483 4 -517 23 -49 29 -69 75 -76 183 l-7 91 514 3 c476 3 516 4 540
21 52 35 74 140 73 342 -1 217 -22 299 -100 379 -94 97 -204 117 -638 115
-176 -1 -334 -4 -351 -6z m676 -320 c16 -10 39 -37 50 -61 18 -36 21 -57 17
-121 -2 -42 -8 -83 -12 -89 -5 -9 -104 -12 -387 -12 l-379 0 0 33 c1 64 20
178 35 207 30 57 42 59 358 60 256 0 292 -2 318 -17z"/>
<path d="M6085 3530 c-3 -5 -2 -25 3 -43 8 -28 219 -562 392 -992 26 -66 62
-156 79 -200 18 -44 46 -109 64 -145 48 -97 61 -102 274 -98 155 3 175 5 200
24 29 22 45 55 153 324 34 85 89 219 121 297 32 78 59 145 59 148 0 4 29 77
64 163 144 353 196 488 196 510 0 22 0 22 -179 22 -131 0 -181 -3 -189 -12 -6
-7 -42 -96 -82 -198 -39 -102 -95 -248 -125 -325 -30 -77 -79 -205 -110 -285
-31 -80 -67 -174 -81 -209 -32 -87 -40 -93 -60 -45 -21 49 -115 294 -204 529
-138 366 -197 513 -212 533 -13 15 -353 18 -363 2z"/>
<path d="M7852 3528 c-9 -9 -12 -185 -12 -730 l0 -718 24 -16 c35 -22 312 -17
326 6 15 24 13 1443 -2 1458 -8 8 -60 12 -168 12 -108 0 -160 -4 -168 -12z"/>
<path d="M8445 3531 c-50 -21 -48 4 -49 -736 -1 -382 2 -704 6 -715 7 -19 16
-20 166 -20 121 0 162 3 171 13 8 10 12 183 13 583 l3 569 250 3 c292 4 363
-5 433 -51 35 -24 52 -44 67 -82 19 -47 20 -75 23 -530 2 -323 6 -483 14 -492
14 -18 318 -19 336 -1 9 9 12 139 12 523 0 474 -1 517 -19 588 -48 187 -135
277 -316 329 -78 22 -94 22 -585 25 -278 1 -514 -2 -525 -6z"/>
</g>
<g transform="translate(-154.000000,405.971089) scale(0.100000,-0.100000)" fill="#0A1628" stroke="none">
<path d="M11701 4049 c-83 -16 -85 -20 -189 -264 -33 -77 -81 -189 -107 -250
-26 -60 -79 -184 -117 -275 -39 -91 -85 -199 -103 -240 -17 -41 -58 -136 -90
-210 -32 -74 -82 -191 -113 -260 -30 -69 -60 -141 -67 -160 -7 -19 -25 -62
-40 -95 -39 -86 -95 -226 -95 -237 0 -14 395 -9 414 5 9 7 48 91 87 187 39 96
78 192 87 213 l15 37 477 0 476 0 31 -77 c83 -204 144 -347 155 -360 9 -11 52
-13 209 -13 109 1 201 5 203 8 4 7 -59 164 -181 452 -120 281 -153 360 -214
505 -32 77 -89 214 -127 305 -69 163 -145 347 -237 568 -52 125 -71 145 -146
161 -58 13 -264 13 -328 0z m213 -501 c86 -204 151 -364 176 -433 10 -27 39
-98 63 -157 24 -59 42 -110 39 -113 -3 -3 -153 -5 -334 -5 -256 0 -328 3 -328
13 0 11 43 120 207 522 36 88 76 188 90 223 14 34 28 62 33 62 4 0 29 -51 54
-112z"/>
<path d="M13080 4031 c-11 -22 -13 -1844 -2 -1921 l7 -45 175 -2 c100 -2 181
1 190 7 13 8 15 128 17 971 1 543 -3 972 -8 986 -8 23 -9 23 -188 23 -168 0
-181 -1 -191 -19z"/>
<path d="M10270 2569 c-207 -93 -212 -391 -8 -493 75 -38 175 -37 249 2 103
54 166 185 140 295 -20 89 -92 175 -169 203 -57 20 -159 17 -212 -7z"/>
</g>
</g>
</svg>